<?xml version="1.0"?>
<svg xmlns="http://www.w3.org/2000/svg" xmlns:xlink="http://www.w3.org/1999/xlink" version="1.1" id="Capa_1" x="0px" y="0px" viewBox="0 0 512.001 512.001" style="enable-background:new 0 0 512.001 512.001;" xml:space="preserve" width="512px" height="512px"><g><path d="M416.871,49.489C383.33,16.428,339.328-0.637,293.61,0.018c-87.742,1.269-160.822,69.509-168.717,156.369  c-17.306,5.539-32.654,20.11-36.388,43.168c-23.114-1.847-43.019,15.728-44.553,38.384c-1.661,24.512,17.852,44.25,41.287,44.25  h36.525c4.143,0,7.5-3.357,7.5-7.5c0-4.143-3.357-7.5-7.5-7.5H85.239c-15.234,0-27.363-12.824-26.321-28.235  c0.886-13.073,11.416-23.593,24.494-24.47c5.861-0.395,10.482,2.334,15.643-1.701c2.229-1.743,3.582-4.326,3.806-7.202  c4.001-45.632,62.602-48.518,74.452-9.836c1.677,5.467,7.158,8.733,12.737,7.587c7.244-1.481,14.656,1.162,19.344,6.899  c2.48,3.039,6.485,4.672,10.726,3.868c16.986-3.216,32.56,10.295,31.76,27.52c0,0.004,0,0.009-0.001,0.013  c-0.654,14.076-12.209,25.556-26.748,25.556c-9.599,0-58.938,0-68.363,0c-4.143,0-7.5,3.357-7.5,7.5c0,4.143,3.357,7.5,7.5,7.5  h7.404c20.668,24.736,30.268,25.369,43.339,41.24c-15.807,12.551-6.879,38.014,13.226,38.014h19.251l7.845,50.78  c-8.76,2.651-15.158,10.792-15.158,20.406c0,6.198,2.675,11.77,6.911,15.669v39.616c0,13.281,10.805,24.086,24.086,24.086h64.962  c10.96,0,20.542-7.432,23.301-18.073c1.04-4.01-1.368-8.104-5.377-9.144c-4.011-1.043-8.105,1.368-9.144,5.377  c-1.044,4.026-4.654,6.838-8.781,6.838h-64.962c-5.009,0-9.085-4.075-9.085-9.086v-33.964h83.132v3.092c0,4.143,3.357,7.5,7.5,7.5  c4.143,0,7.5-3.357,7.5-7.5v-8.746c4.236-3.899,6.91-9.471,6.91-15.668c0-9.614-6.398-17.755-15.158-20.406l7.845-50.78h20.454  c20.605,0,29.193-26.483,12.458-38.589c4.742-5.618,9.276-9.64,14.709-13.762C483.288,245.871,491.812,123.354,416.871,49.489z   M187.915,285.63c-1.103-1.052-2.197-2.112-3.27-3.196c-0.082-0.083-0.165-0.162-0.247-0.245h1.198  c0.927,1.325,1.871,2.63,2.829,3.92C188.256,285.949,188.084,285.791,187.915,285.63z M425.109,176.349h-63.752  c0.426-47.907-7.217-119.493-33.702-156.571C382.469,36.687,426.83,98.741,425.109,176.349z M295.566,15.015  c0.126,0,0.252,0,0.378-0.001H296h0.11c0.147,0,0.295-0.001,0.442-0.001h0.053c0.006,0,0.05,0,0.086,0  c24.023,0.984,50.556,68.134,49.665,161.335h-26.814c-6.904-7.369-16.489-11.28-26.43-10.891  c-4.452-23.608-24.663-37.242-45.166-36.19C254.758,58.522,277.013,15.825,295.566,15.015z M266.465,234.288h27.959  c2.969,0,5.905-0.389,8.738-1.135c12.832-3.382,22.645-13.833,25.095-26.812c0.913-4.841,0.801-10.028-0.466-14.991h18.174  c-1.844,43.171-9.777,82.978-22.003,109.104c-2.509,5.36-4.715,11.513-6.584,18.346h-42.464  c-5.644-20.751-10.208-21.104-18.002-51.273C265.131,257.921,268.158,245.73,266.465,234.288z M152.847,155.182  c-3.839-0.872-8.202-1.387-12.621-1.331c4.365-37.574,22.12-71.109,48.243-95.806C168.215,85.285,155.8,119.129,152.847,155.182z   M174.671,165.881c-2.255-1.856-4.661-3.522-7.196-4.981c3.964-68.79,44.178-125.075,97.333-141.223  c-17.584,24.572-28.45,68.798-32.243,113.189c-10.225,4.465-18.487,12.767-22.848,23.479c-8.412-0.509-16.625,2.626-22.568,8.672  C183.064,164.554,178.762,164.828,174.671,165.881z M219.496,199.005c-0.465-0.499-0.943-0.983-1.433-1.451  c-6.821-6.517-15.945-9.959-25.316-9.603c-0.06,0.002-0.119,0-0.178,0.003c-0.182,0.008-0.365,0.029-0.548,0.04  c-0.491,0.029-0.982,0.056-1.474,0.106c-1.054-2.796-2.332-5.459-3.796-7.982c0.079,0.014,0.159,0.022,0.238,0.037  c3.731,0.717,7.547-0.67,9.956-3.618c3.362-4.115,8.681-6.012,13.877-4.949c5.219,1.063,10.335-1.981,11.899-7.087  c3.755-12.251,14.949-20.287,27.452-20.287c12.655,0,27.038,8.696,28.707,27.715c0.488,6.255,6.223,9.9,11.988,8.836  c18.496-3.4,30.422,18.804,17.754,32.358c-3.716,3.977-8.759,6.166-14.198,6.166l-33.267-0.001c-0.07-0.12-0.145-0.236-0.216-0.355  c-0.007-0.011-0.014-0.022-0.021-0.033C252.346,204.595,236.198,196.722,219.496,199.005z M204.348,282.189h20.782  c6.64,0,13.146-1.614,18.977-4.585c7.025,24.676,10.793,26.88,15.188,41.197h-22.872  C225.298,300.517,218.465,299.599,204.348,282.189z M344.631,432.628c0,3.56-2.938,6.32-6.321,6.32h-84.311  c-3.413,0-6.321-2.786-6.321-6.32c0-3.485,2.836-6.321,6.321-6.321c9.111,0,77.494,0,84.311,0  C341.794,426.307,344.631,429.143,344.631,432.628z M255.167,361.443h34.087v49.863h-26.383L255.167,361.443z M304.255,411.306  v-49.863h32.885l-7.704,49.863L304.255,411.306L304.255,411.306z M372.772,346.442H220.736c-3.485,0-6.32-2.835-6.32-6.32  c0-3.483,2.844-6.32,6.32-6.32c162.348,0,151.259-0.009,152.368,0.017c3.331,0.174,5.99,2.93,5.99,6.304  C379.095,343.607,376.259,346.442,372.772,346.442z M372.946,298.067c-6.591,5.954-12.334,12.914-17.113,20.731H333  c4.435-14.36,24.728-46.209,27.991-127.449h63.202C419.949,233.836,401.803,271.993,372.946,298.067z M404.148,285.868  c19.605-26.365,31.835-59.131,35.114-94.519h12.665C447.658,226.003,431.869,259.355,404.148,285.868z M440.11,176.349  c0.938-45.834-12.932-87.243-36.197-118.512c32.753,30.963,50.375,73.361,49.154,118.512H440.11z" data-original="#000000" class="active-path" data-old_color="#fec807" fill="#fec807"/></g> </svg>
